<svg width="512" height="512" viewBox="0 0 512 512" fill="none" xmlns="http://www.w3.org/2000/svg">
<path d="M113.108 289.364H398.892L446.034 428.78H65.9659L113.108 289.364Z" fill="#312B8C"/>
<rect x="19.5" y="427.589" width="473" height="83.4112" rx="20" fill="#312B8C"/>
<ellipse cx="256.596" cy="209.528" rx="208.501" ry="208.528" fill="#554BF2"/>
<path d="M177.752 219.657H212.423C214.806 219.657 217.07 219.657 219.214 219.657C221.478 219.657 223.801 219.657 226.184 219.657L235.12 217.869L239.409 250.042H179.718C179.242 250.042 178.825 249.982 178.467 249.863C178.229 249.625 178.05 249.387 177.931 249.148C177.812 248.791 177.752 248.433 177.752 248.076V219.657ZM191.156 271.491C184.842 271.491 178.527 271.491 172.212 271.491C166.017 271.491 159.762 271.491 153.447 271.491C153.209 271.491 152.911 271.431 152.554 271.312C152.315 271.193 152.077 270.954 151.839 270.597C151.72 270.239 151.72 269.763 151.839 269.167C153.03 263.328 154.222 257.489 155.413 251.651C156.604 245.812 157.796 239.973 158.987 234.134C160.179 228.296 161.37 222.457 162.562 216.618C163.753 210.66 164.945 204.762 166.136 198.923C167.327 193.084 168.519 187.245 169.71 181.407C170.902 175.568 172.093 169.729 173.285 163.89C174.476 158.051 175.667 152.213 176.859 146.374C187.105 146.374 197.352 146.374 207.598 146.374C217.963 146.374 228.269 146.374 238.516 146.374C238.992 146.374 239.35 146.433 239.588 146.553C239.826 146.672 240.005 146.91 240.124 147.268C240.362 147.506 240.541 147.863 240.66 148.34C242.328 156.562 243.996 164.843 245.664 173.185C247.451 181.407 249.179 189.688 250.847 198.029C252.515 206.251 254.183 214.533 255.851 222.874C257.638 231.096 259.366 239.318 261.034 247.54C261.749 251.591 262.523 255.583 263.357 259.515C264.191 263.447 265.025 267.439 265.859 271.491C259.425 271.491 253.111 271.491 246.915 271.491C240.72 271.491 234.763 271.491 229.044 271.491C228.21 271.491 227.554 271.431 227.078 271.312C226.601 271.074 226.244 270.597 226.006 269.882C225.767 269.048 225.469 267.856 225.112 266.307C224.159 260.588 223.146 254.749 222.074 248.791C221.002 242.833 219.929 236.815 218.857 230.738C217.785 224.542 216.712 218.286 215.64 211.971C214.568 205.655 213.496 199.34 212.423 193.025C211.47 186.59 210.517 180.215 209.564 173.9L214.568 178.904H202.594L207.419 173.9C206.466 180.453 205.453 187.007 204.381 193.561C203.428 199.995 202.356 206.489 201.164 213.043C200.092 219.478 198.96 225.972 197.769 232.526C196.696 238.96 195.564 245.454 194.373 252.008C193.301 258.443 192.228 264.937 191.156 271.491Z" fill="white"/>
<path d="M331.518 262.554H290.77L291.485 260.588C291.485 255.464 291.485 250.4 291.485 245.395C291.485 240.39 291.485 235.326 291.485 230.202C291.485 224.959 291.485 219.299 291.485 213.222C291.485 207.145 291.485 200.829 291.485 194.276C291.485 187.722 291.485 181.168 291.485 174.614C291.485 167.942 291.485 161.507 291.485 155.311H332.947L331.518 157.277C331.518 162.758 331.518 168.299 331.518 173.9C331.518 179.381 331.518 184.922 331.518 190.522C331.518 196.48 331.518 202.498 331.518 208.575C331.518 214.533 331.518 220.55 331.518 226.627C331.518 232.585 331.518 238.603 331.518 244.68C331.518 250.638 331.518 256.596 331.518 262.554ZM350.819 271.491H274.15C273.792 271.491 273.495 271.491 273.256 271.491C273.018 271.371 272.78 271.252 272.541 271.133C272.422 270.895 272.303 270.657 272.184 270.418C272.184 270.18 272.184 269.882 272.184 269.525C272.184 266.784 272.184 263.15 272.184 258.621C272.184 253.974 272.184 249.387 272.184 244.859C272.184 240.331 272.184 236.696 272.184 233.956H348.853C349.21 233.956 349.508 234.075 349.746 234.313C350.104 234.432 350.342 234.671 350.461 235.028C350.7 235.266 350.819 235.564 350.819 235.922C350.819 238.662 350.819 242.297 350.819 246.825C350.819 251.353 350.819 255.94 350.819 260.588C350.819 265.116 350.819 268.75 350.819 271.491ZM272.184 146.374H348.853C349.449 146.374 349.925 146.553 350.283 146.91C350.64 147.268 350.819 147.744 350.819 148.34C350.819 150.366 350.819 152.987 350.819 156.204C350.819 159.303 350.819 162.639 350.819 166.214C350.819 169.669 350.819 173.006 350.819 176.223C350.819 179.321 350.819 181.883 350.819 183.909H274.15C273.554 183.909 273.078 183.73 272.72 183.373C272.363 183.015 272.184 182.539 272.184 181.943C272.184 179.917 272.184 177.355 272.184 174.257C272.184 171.04 272.184 167.703 272.184 164.248C272.184 160.673 272.184 157.336 272.184 154.238C272.184 151.021 272.184 148.4 272.184 146.374Z" fill="white"/>
</svg>